<svg viewBox="0 0 670 229" preserveAspectRatio="none" fill="none" xmlns="http://www.w3.org/2000/svg">
    <rect x="5" y="0" width="250" height="14" rx="6" fill="#F0F0F0"/>
    <rect x="415" y="0" width="250" height="14" rx="6" fill="#F0F0F0"/>
    <rect x="5" y="33" width="250" height="14" rx="6" fill="#F0F0F0"/>
    <rect x="415" y="33" width="250" height="14" rx="6" fill="#F0F0F0"/>
    <rect x="5" y="66" width="250" height="14" rx="6" fill="#F0F0F0"/>
    <rect x="415" y="66" width="250" height="14" rx="6" fill="#F0F0F0"/>
    <rect x="5" y="99" width="250" height="14" rx="6" fill="#F0F0F0"/>
    <rect x="415" y="99" width="250" height="14" rx="6" fill="#F0F0F0"/>
    <rect x="5" y="132" width="250" height="14" rx="6" fill="#F0F0F0"/>
    <rect x="415" y="132" width="250" height="14" rx="6" fill="#F0F0F0"/>
    <rect x="5" y="165" width="250" height="14" rx="6" fill="#F0F0F0"/>
    <rect x="415" y="165" width="250" height="14" rx="6" fill="#F0F0F0"/>
    <rect x="5" y="198" width="250" height="14" rx="6" fill="#F0F0F0"/>
    <rect x="415" y="198" width="250" height="14" rx="6" fill="#F0F0F0"/>
</svg>
